STARTFONT 2.1
FONT -sun-timmons-bold-r-normal--12-120-75-75-p-69-adobe-fontspecific
SIZE 12 75 75
FONTBOUNDINGBOX 15 15 -3 -3

STARTPROPERTIES 28
FOUNDRY "sun"
FAMILY_NAME "timmons"
WEIGHT_NAME "bold"
SLANT "r"
SETWIDTH_NAME "normal"
ADD_STYLE_NAME ""
PIXEL_SIZE 12
POINT_SIZE 120
RESOLUTION_X 75
RESOLUTION_Y 75
SPACING "p"
AVERAGE_WIDTH 69
CHARSET_REGISTRY "adobe"
CHARSET_ENCODING "fontspecific"
COPYRIGHT "© 1999 Sun Microsystems, Inc."
RAW_PIXELSIZE 1000
RAW_POINTSIZE 964
RAW_ASCENT 950
RAW_DESCENT 196
RAW_AVERAGE_WIDTH 5542
FACE_NAME "TimmonsBoldmonsB5"
_XMBDFED_INFO "Edited with xmbdfed 2.4."
WEIGHT 10
X_HEIGHT -1
QUAD_WIDTH 7
DEFAULT_CHAR 4
FONT_DESCENT 3
FONT_ASCENT 12
ENDPROPERTIES

CHARS 214

STARTCHAR char32
ENCODING 32
SWIDTH 28 0
DWIDTH 4 0
BBX 0 0 0 0
BITMAP
ENDCHAR

STARTCHAR char33
ENCODING 33
SWIDTH 28 0
DWIDTH 4 0
BBX 2 9 1 0
BITMAP
C0
C0
C0
C0
40
40
00
C0
C0
ENDCHAR

STARTCHAR char34
ENCODING 34
SWIDTH 43 0
DWIDTH 6 0
BBX 5 4 0 5
BITMAP
D8
D8
48
48
ENDCHAR

STARTCHAR char35
ENCODING 35
SWIDTH 50 0
DWIDTH 7 0
BBX 6 9 0 0
BITMAP
28
28
FC
28
28
38
C8
48
50
ENDCHAR

STARTCHAR char36
ENCODING 36
SWIDTH 57 0
DWIDTH 8 0
BBX 7 12 0 -2
BITMAP
18
7C
D4
DC
F8
7C
1E
96
D6
7C
10
10
ENDCHAR

STARTCHAR char37
ENCODING 37
SWIDTH 71 0
DWIDTH 10 0
BBX 9 9 0 0
BITMAP
6600
B400
BC00
BF00
BF80
7F80
1780
3680
1300
ENDCHAR

STARTCHAR char38
ENCODING 38
SWIDTH 71 0
DWIDTH 10 0
BBX 9 9 0 0
BITMAP
1C00
3C00
3C00
3700
3A00
CA00
CC00
EE80
7700
ENDCHAR

STARTCHAR char39
ENCODING 39
SWIDTH 21 0
DWIDTH 3 0
BBX 2 4 1 5
BITMAP
40
80
C0
C0
ENDCHAR

STARTCHAR char40
ENCODING 40
SWIDTH 35 0
DWIDTH 5 0
BBX 4 11 0 -2
BITMAP
10
60
40
C0
C0
C0
C0
C0
40
20
10
ENDCHAR

STARTCHAR char41
ENCODING 41
SWIDTH 35 0
DWIDTH 5 0
BBX 4 11 0 -2
BITMAP
C0
60
20
30
30
30
30
30
20
40
80
ENDCHAR

STARTCHAR char42
ENCODING 42
SWIDTH 43 0
DWIDTH 6 0
BBX 5 5 0 4
BITMAP
30
E8
38
70
30
ENDCHAR

STARTCHAR char43
ENCODING 43
SWIDTH 64 0
DWIDTH 9 0
BBX 8 7 0 0
BITMAP
18
18
18
FF
18
18
18
ENDCHAR

STARTCHAR char44
ENCODING 44
SWIDTH 21 0
DWIDTH 3 0
BBX 2 4 1 -2
BITMAP
C0
C0
40
40
ENDCHAR

STARTCHAR char45
ENCODING 45
SWIDTH 35 0
DWIDTH 5 0
BBX 4 1 0 3
BITMAP
F0
ENDCHAR

STARTCHAR char46
ENCODING 46
SWIDTH 21 0
DWIDTH 3 0
BBX 2 2 1 0
BITMAP
C0
C0
ENDCHAR

STARTCHAR char47
ENCODING 47
SWIDTH 35 0
DWIDTH 5 0
BBX 5 9 0 0
BITMAP
18
10
10
20
20
20
40
40
C0
ENDCHAR

STARTCHAR char48
ENCODING 48
SWIDTH 43 0
DWIDTH 6 0
BBX 6 9 0 0
BITMAP
10
68
CC
CC
CC
CC
CC
48
70
ENDCHAR

STARTCHAR char49
ENCODING 49
SWIDTH 43 0
DWIDTH 6 0
BBX 4 9 1 0
BITMAP
20
E0
60
60
60
60
60
60
F0
ENDCHAR

STARTCHAR char50
ENCODING 50
SWIDTH 43 0
DWIDTH 6 0
BBX 6 9 0 0
BITMAP
70
B8
18
18
10
20
20
78
F8
ENDCHAR

STARTCHAR char51
ENCODING 51
SWIDTH 43 0
DWIDTH 6 0
BBX 6 9 0 0
BITMAP
78
9C
18
10
7C
1C
0C
88
F0
ENDCHAR

STARTCHAR char52
ENCODING 52
SWIDTH 43 0
DWIDTH 6 0
BBX 5 9 0 0
BITMAP
08
18
38
38
58
98
F8
18
18
ENDCHAR

STARTCHAR char53
ENCODING 53
SWIDTH 43 0
DWIDTH 6 0
BBX 6 9 0 0
BITMAP
7C
7C
40
70
F8
1C
0C
88
F0
ENDCHAR

STARTCHAR char54
ENCODING 54
SWIDTH 43 0
DWIDTH 6 0
BBX 6 9 0 0
BITMAP
1C
20
60
F8
DC
CC
CC
CC
78
ENDCHAR

STARTCHAR char55
ENCODING 55
SWIDTH 43 0
DWIDTH 6 0
BBX 6 9 0 0
BITMAP
FC
F8
88
08
10
10
10
20
20
ENDCHAR

STARTCHAR char56
ENCODING 56
SWIDTH 43 0
DWIDTH 6 0
BBX 6 9 0 0
BITMAP
78
CC
CC
E8
78
DC
8C
CC
78
ENDCHAR

STARTCHAR char57
ENCODING 57
SWIDTH 43 0
DWIDTH 6 0
BBX 6 9 0 0
BITMAP
70
D8
CC
CC
CC
7C
18
10
60
ENDCHAR

STARTCHAR char58
ENCODING 58
SWIDTH 28 0
DWIDTH 4 0
BBX 2 6 1 0
BITMAP
C0
C0
00
00
C0
C0
ENDCHAR

STARTCHAR char59
ENCODING 59
SWIDTH 28 0
DWIDTH 4 0
BBX 2 8 1 -2
BITMAP
C0
C0
00
00
C0
C0
40
40
ENDCHAR

STARTCHAR char60
ENCODING 60
SWIDTH 50 0
DWIDTH 7 0
BBX 7 6 0 0
BITMAP
0C
30
C0
60
18
06
ENDCHAR

STARTCHAR char61
ENCODING 61
SWIDTH 64 0
DWIDTH 9 0
BBX 8 3 0 2
BITMAP
FF
00
FF
ENDCHAR

STARTCHAR char62
ENCODING 62
SWIDTH 50 0
DWIDTH 7 0
BBX 7 6 0 0
BITMAP
E0
18
06
0C
30
C0
ENDCHAR

STARTCHAR char63
ENCODING 63
SWIDTH 43 0
DWIDTH 6 0
BBX 4 9 1 0
BITMAP
60
F0
F0
30
20
60
00
40
40
ENDCHAR

STARTCHAR char64
ENCODING 64
SWIDTH 27 0
DWIDTH 14 0
BBX 10 9 1 0
BITMAP
1F00
2080
7FC0
F3C0
F2C0
F2C0
7F00
2080
1F00
ENDCHAR

STARTCHAR char65
ENCODING 65
SWIDTH 57 0
DWIDTH 8 0
BBX 8 9 0 0
BITMAP
10
18
18
3C
2C
3E
4E
46
CF
ENDCHAR

STARTCHAR char66
ENCODING 66
SWIDTH 57 0
DWIDTH 8 0
BBX 7 9 0 0
BITMAP
FC
66
66
66
7C
66
66
66
FC
ENDCHAR

STARTCHAR char67
ENCODING 67
SWIDTH 64 0
DWIDTH 9 0
BBX 8 9 0 0
BITMAP
3F
61
C1
C0
C0
C0
E0
63
3C
ENDCHAR

STARTCHAR char68
ENCODING 68
SWIDTH 71 0
DWIDTH 10 0
BBX 8 9 0 0
BITMAP
FC
66
63
63
63
63
63
62
FC
ENDCHAR

STARTCHAR char69
ENCODING 69
SWIDTH 57 0
DWIDTH 8 0
BBX 7 9 0 0
BITMAP
FE
62
66
64
78
64
66
62
FE
ENDCHAR

STARTCHAR char70
ENCODING 70
SWIDTH 50 0
DWIDTH 7 0
BBX 7 9 0 0
BITMAP
FE
62
66
64
78
64
64
60
E0
ENDCHAR

STARTCHAR char71
ENCODING 71
SWIDTH 71 0
DWIDTH 10 0
BBX 9 9 0 0
BITMAP
3F00
6100
4100
C000
C000
C780
C300
6300
3F00
ENDCHAR

STARTCHAR char72
ENCODING 72
SWIDTH 71 0
DWIDTH 10 0
BBX 9 9 0 0
BITMAP
F780
6300
6300
6300
7F00
6300
6300
6300
E380
ENDCHAR

STARTCHAR char73
ENCODING 73
SWIDTH 35 0
DWIDTH 5 0
BBX 4 9 0 0
BITMAP
F0
60
60
60
60
60
60
60
F0
ENDCHAR

STARTCHAR char74
ENCODING 74
SWIDTH 50 0
DWIDTH 7 0
BBX 6 9 0 0
BITMAP
3C
18
18
18
18
18
58
D8
70
ENDCHAR

STARTCHAR char75
ENCODING 75
SWIDTH 57 0
DWIDTH 8 0
BBX 8 9 0 0
BITMAP
F7
64
68
68
78
6C
6E
66
F7
ENDCHAR

STARTCHAR char76
ENCODING 76
SWIDTH 57 0
DWIDTH 8 0
BBX 8 9 0 0
BITMAP
F0
60
60
60
60
61
61
62
FE
ENDCHAR

STARTCHAR char77
ENCODING 77
SWIDTH 13 0
DWIDTH 12 0
BBX 11 9 0 0
BITMAP
E0E0
F1C0
D1C0
D2C0
DAC0
CAC0
CCC0
C8C0
C9E0
ENDCHAR

STARTCHAR char78
ENCODING 78
SWIDTH 71 0
DWIDTH 10 0
BBX 9 9 0 0
BITMAP
E380
E300
F300
DB00
CB00
CF00
C700
C700
E300
ENDCHAR

STARTCHAR char79
ENCODING 79
SWIDTH 71 0
DWIDTH 10 0
BBX 9 9 0 0
BITMAP
3E00
6300
E180
C180
C180
C180
C180
6300
3E00
ENDCHAR

STARTCHAR char80
ENCODING 80
SWIDTH 57 0
DWIDTH 8 0
BBX 7 9 0 0
BITMAP
FC
66
66
66
7C
60
60
60
F0
ENDCHAR

STARTCHAR char81
ENCODING 81
SWIDTH 71 0
DWIDTH 10 0
BBX 9 11 0 -2
BITMAP
3E00
6300
C180
C180
C180
C180
C180
6300
3600
0C00
0700
ENDCHAR

STARTCHAR char82
ENCODING 82
SWIDTH 57 0
DWIDTH 8 0
BBX 8 9 0 0
BITMAP
FC
66
66
66
78
6C
6C
66
F7
ENDCHAR

STARTCHAR char83
ENCODING 83
SWIDTH 57 0
DWIDTH 8 0
BBX 7 9 0 0
BITMAP
7C
C4
C4
F0
7C
1E
86
C6
BC
ENDCHAR

STARTCHAR char84
ENCODING 84
SWIDTH 57 0
DWIDTH 8 0
BBX 8 9 0 0
BITMAP
FF
B3
B3
30
30
30
30
30
7C
ENDCHAR

STARTCHAR char85
ENCODING 85
SWIDTH 64 0
DWIDTH 9 0
BBX 8 9 0 0
BITMAP
F3
63
63
63
63
63
63
63
3C
ENDCHAR

STARTCHAR char86
ENCODING 86
SWIDTH 57 0
DWIDTH 8 0
BBX 7 9 0 0
BITMAP
F6
64
74
34
34
38
10
10
10
ENDCHAR

STARTCHAR char87
ENCODING 87
SWIDTH 13 0
DWIDTH 12 0
BBX 11 9 0 0
BITMAP
FE20
4C20
6640
6E40
2F40
2B80
3380
1300
1100
ENDCHAR

STARTCHAR char88
ENCODING 88
SWIDTH 57 0
DWIDTH 8 0
BBX 7 9 0 0
BITMAP
EE
68
28
30
10
38
58
4C
8E
ENDCHAR

STARTCHAR char89
ENCODING 89
SWIDTH 57 0
DWIDTH 8 0
BBX 7 9 0 0
BITMAP
F6
64
74
34
3C
18
18
18
78
ENDCHAR

STARTCHAR char90
ENCODING 90
SWIDTH 57 0
DWIDTH 8 0
BBX 8 9 0 0
BITMAP
7E
8C
8C
18
38
30
61
E1
FE
ENDCHAR

STARTCHAR char91
ENCODING 91
SWIDTH 28 0
DWIDTH 4 0
BBX 3 11 0 -2
BITMAP
E0
C0
C0
C0
C0
C0
C0
C0
C0
C0
E0
ENDCHAR

STARTCHAR char92
ENCODING 92
SWIDTH 28 0
DWIDTH 4 0
BBX 4 9 0 0
BITMAP
80
80
40
40
40
20
20
20
20
ENDCHAR

STARTCHAR char93
ENCODING 93
SWIDTH 28 0
DWIDTH 4 0
BBX 3 11 0 -2
BITMAP
60
60
60
60
60
60
60
60
60
60
E0
ENDCHAR

STARTCHAR char94
ENCODING 94
SWIDTH 0 0
DWIDTH 0 0
BBX 4 2 -2 9
BITMAP
E0
80
ENDCHAR

STARTCHAR char95
ENCODING 95
SWIDTH 50 0
DWIDTH 7 0
BBX 7 1 0 -2
BITMAP
FE
ENDCHAR

STARTCHAR char96
ENCODING 96
SWIDTH 0 0
DWIDTH 0 0
BBX 3 2 -2 7
BITMAP
C0
40
ENDCHAR

STARTCHAR char97
ENCODING 97
SWIDTH 43 0
DWIDTH 6 0
BBX 6 6 0 0
BITMAP
70
D8
18
78
D8
F8
ENDCHAR

STARTCHAR char98
ENCODING 98
SWIDTH 50 0
DWIDTH 7 0
BBX 6 9 0 0
BITMAP
C0
C0
C0
F8
CC
CC
CC
CC
B8
ENDCHAR

STARTCHAR char99
ENCODING 99
SWIDTH 35 0
DWIDTH 5 0
BBX 6 6 0 0
BITMAP
70
D8
C0
C0
EC
70
ENDCHAR

STARTCHAR char100
ENCODING 100
SWIDTH 50 0
DWIDTH 7 0
BBX 6 9 0 0
BITMAP
18
18
18
78
D8
D8
D8
D8
6C
ENDCHAR

STARTCHAR char101
ENCODING 101
SWIDTH 43 0
DWIDTH 6 0
BBX 6 6 0 0
BITMAP
70
C8
F8
C0
CC
70
ENDCHAR

STARTCHAR char102
ENCODING 102
SWIDTH 28 0
DWIDTH 4 0
BBX 5 9 0 0
BITMAP
38
78
60
F0
60
60
60
60
F0
ENDCHAR

STARTCHAR char103
ENCODING 103
SWIDTH 43 0
DWIDTH 6 0
BBX 5 8 0 -2
BITMAP
78
D8
D8
70
C0
F8
F8
F8
ENDCHAR

STARTCHAR char104
ENCODING 104
SWIDTH 50 0
DWIDTH 7 0
BBX 6 9 0 0
BITMAP
C0
40
40
5C
6C
6C
6C
6C
FC
ENDCHAR

STARTCHAR char105
ENCODING 105
SWIDTH 28 0
DWIDTH 4 0
BBX 3 9 0 0
BITMAP
60
60
00
E0
60
60
60
60
E0
ENDCHAR

STARTCHAR char106
ENCODING 106
SWIDTH 28 0
DWIDTH 4 0
BBX 4 11 -2 -2
BITMAP
30
30
00
30
30
30
30
30
30
F0
E0
ENDCHAR

STARTCHAR char107
ENCODING 107
SWIDTH 50 0
DWIDTH 7 0
BBX 6 9 0 0
BITMAP
C0
C0
C0
D8
D0
E0
D0
D0
FC
ENDCHAR

STARTCHAR char108
ENCODING 108
SWIDTH 28 0
DWIDTH 4 0
BBX 3 9 0 0
BITMAP
C0
C0
C0
C0
C0
C0
C0
C0
E0
ENDCHAR

STARTCHAR char109
ENCODING 109
SWIDTH 71 0
DWIDTH 10 0
BBX 9 6 0 0
BITMAP
FB00
CD80
CD80
CD80
CD80
FF80
ENDCHAR

STARTCHAR char110
ENCODING 110
SWIDTH 50 0
DWIDTH 7 0
BBX 6 6 0 0
BITMAP
F8
CC
CC
CC
CC
FC
ENDCHAR

STARTCHAR char111
ENCODING 111
SWIDTH 43 0
DWIDTH 6 0
BBX 6 6 0 0
BITMAP
78
CC
CC
CC
CC
78
ENDCHAR

STARTCHAR char112
ENCODING 112
SWIDTH 50 0
DWIDTH 7 0
BBX 6 8 0 -2
BITMAP
F8
CC
CC
CC
EC
D8
C0
C0
ENDCHAR

STARTCHAR char113
ENCODING 113
SWIDTH 50 0
DWIDTH 7 0
BBX 6 8 0 -2
BITMAP
78
D8
D8
D8
D8
68
08
1C
ENDCHAR

STARTCHAR char114
ENCODING 114
SWIDTH 35 0
DWIDTH 5 0
BBX 5 6 0 0
BITMAP
F0
68
40
40
40
E0
ENDCHAR

STARTCHAR char115
ENCODING 115
SWIDTH 35 0
DWIDTH 5 0
BBX 4 6 0 0
BITMAP
70
D0
E0
70
90
F0
ENDCHAR

STARTCHAR char116
ENCODING 116
SWIDTH 28 0
DWIDTH 4 0
BBX 4 8 0 0
BITMAP
40
C0
E0
C0
C0
C0
C0
E0
ENDCHAR

STARTCHAR char117
ENCODING 117
SWIDTH 50 0
DWIDTH 7 0
BBX 6 6 0 0
BITMAP
DC
CC
CC
CC
CC
FC
ENDCHAR

STARTCHAR char118
ENCODING 118
SWIDTH 43 0
DWIDTH 6 0
BBX 5 6 0 0
BITMAP
F8
70
70
30
20
20
ENDCHAR

STARTCHAR char119
ENCODING 119
SWIDTH 57 0
DWIDTH 8 0
BBX 8 6 0 0
BITMAP
FF
6E
7E
36
24
24
ENDCHAR

STARTCHAR char120
ENCODING 120
SWIDTH 43 0
DWIDTH 6 0
BBX 6 6 0 0
BITMAP
EC
78
20
30
58
DC
ENDCHAR

STARTCHAR char121
ENCODING 121
SWIDTH 43 0
DWIDTH 6 0
BBX 6 8 0 -2
BITMAP
EC
68
68
30
30
20
E0
C0
ENDCHAR

STARTCHAR char122
ENCODING 122
SWIDTH 35 0
DWIDTH 5 0
BBX 6 6 -1 0
BITMAP
FC
D8
18
30
64
78
ENDCHAR

STARTCHAR char123
ENCODING 123
SWIDTH 28 0
DWIDTH 4 0
BBX 3 12 1 -3
BITMAP
60
C0
C0
40
C0
80
80
80
C0
C0
C0
E0
ENDCHAR

STARTCHAR char124
ENCODING 124
SWIDTH 21 0
DWIDTH 3 0
BBX 2 9 1 0
BITMAP
C0
C0
C0
C0
C0
C0
C0
C0
C0
ENDCHAR

STARTCHAR char125
ENCODING 125
SWIDTH 28 0
DWIDTH 4 0
BBX 3 12 1 -3
BITMAP
C0
40
40
40
40
20
40
40
40
40
40
C0
ENDCHAR

STARTCHAR char126
ENCODING 126
SWIDTH 0 0
DWIDTH 0 0
BBX 4 1 -2 10
BITMAP
F0
ENDCHAR

STARTCHAR char128
ENCODING 128
SWIDTH 43 0
DWIDTH 6 0
BBX 7 9 0 0
BITMAP
1C
66
66
C0
F8
F8
C0
66
38
ENDCHAR

STARTCHAR char130
ENCODING 130
SWIDTH 21 0
DWIDTH 3 0
BBX 2 4 0 -2
BITMAP
C0
C0
40
40
ENDCHAR

STARTCHAR char131
ENCODING 131
SWIDTH 0 0
DWIDTH 0 0
BBX 4 2 -2 9
BITMAP
E0
80
ENDCHAR

STARTCHAR char132
ENCODING 132
SWIDTH 43 0
DWIDTH 6 0
BBX 5 4 0 -2
BITMAP
D8
D8
48
88
ENDCHAR

STARTCHAR char133
ENCODING 133
SWIDTH 20 0
DWIDTH 13 0
BBX 11 1 1 0
BITMAP
CC60
ENDCHAR

STARTCHAR char134
ENCODING 134
SWIDTH 43 0
DWIDTH 6 0
BBX 5 11 0 -2
BITMAP
20
20
F8
10
30
30
30
30
30
30
30
ENDCHAR

STARTCHAR char135
ENCODING 135
SWIDTH 13 0
DWIDTH 12 0
BBX 0 0 0 0
BITMAP
ENDCHAR

STARTCHAR char136
ENCODING 136
SWIDTH 0 0
DWIDTH 0 0
BBX 4 2 -2 7
BITMAP
60
60
ENDCHAR

STARTCHAR char137
ENCODING 137
SWIDTH 13 0
DWIDTH 12 0
BBX 0 0 0 0
BITMAP
ENDCHAR

STARTCHAR char138
ENCODING 138
SWIDTH 13 0
DWIDTH 12 0
BBX 0 0 0 0
BITMAP
ENDCHAR

STARTCHAR char139
ENCODING 139
SWIDTH 28 0
DWIDTH 4 0
BBX 2 5 1 1
BITMAP
40
40
80
40
40
ENDCHAR

STARTCHAR char140
ENCODING 140
SWIDTH 20 0
DWIDTH 13 0
BBX 12 9 0 0
BITMAP
3FF0
6730
C3F0
C3C0
C3C0
C3C0
C3D0
6720
3FE0
ENDCHAR

STARTCHAR char141
ENCODING 141
SWIDTH 13 0
DWIDTH 12 0
BBX 0 0 0 0
BITMAP
ENDCHAR

STARTCHAR char143
ENCODING 143
SWIDTH 13 0
DWIDTH 12 0
BBX 0 0 0 0
BITMAP
ENDCHAR

STARTCHAR char145
ENCODING 145
SWIDTH 21 0
DWIDTH 3 0
BBX 3 4 0 5
BITMAP
40
C0
E0
E0
ENDCHAR

STARTCHAR char146
ENCODING 146
SWIDTH 21 0
DWIDTH 3 0
BBX 2 4 1 5
BITMAP
C0
C0
40
40
ENDCHAR

STARTCHAR char147
ENCODING 147
SWIDTH 43 0
DWIDTH 6 0
BBX 5 4 0 5
BITMAP
48
90
D8
D8
ENDCHAR

STARTCHAR char148
ENCODING 148
SWIDTH 43 0
DWIDTH 6 0
BBX 5 4 0 5
BITMAP
D8
D8
48
48
ENDCHAR

STARTCHAR char149
ENCODING 149
SWIDTH 28 0
DWIDTH 4 0
BBX 3 3 1 3
BITMAP
E0
E0
E0
ENDCHAR

STARTCHAR char150
ENCODING 150
SWIDTH 43 0
DWIDTH 6 0
BBX 5 1 0 3
BITMAP
F8
ENDCHAR

STARTCHAR char151
ENCODING 151
SWIDTH 64 0
DWIDTH 9 0
BBX 8 1 0 3
BITMAP
FF
ENDCHAR

STARTCHAR char152
ENCODING 152
SWIDTH 0 0
DWIDTH 0 0
BBX 5 2 -2 7
BITMAP
48
F0
ENDCHAR

STARTCHAR char153
ENCODING 153
SWIDTH 6 0
DWIDTH 11 0
BBX 10 6 0 3
BITMAP
FC40
DCC0
46C0
46C0
47C0
6DC0
ENDCHAR

STARTCHAR char154
ENCODING 154
SWIDTH 13 0
DWIDTH 12 0
BBX 0 0 0 0
BITMAP
ENDCHAR

STARTCHAR char155
ENCODING 155
SWIDTH 28 0
DWIDTH 4 0
BBX 2 5 1 1
BITMAP
80
80
40
C0
80
ENDCHAR

STARTCHAR char156
ENCODING 156
SWIDTH 64 0
DWIDTH 9 0
BBX 9 6 0 0
BITMAP
7600
C900
CF00
C800
CD80
7E00
ENDCHAR

STARTCHAR char157
ENCODING 157
SWIDTH 13 0
DWIDTH 12 0
BBX 0 0 0 0
BITMAP
ENDCHAR

STARTCHAR char159
ENCODING 159
SWIDTH 57 0
DWIDTH 8 0
BBX 7 11 0 0
BITMAP
64
64
F6
64
74
34
3C
18
18
18
38
ENDCHAR

STARTCHAR char160
ENCODING 160
SWIDTH 28 0
DWIDTH 4 0
BBX 0 0 0 0
BITMAP
ENDCHAR

STARTCHAR char161
ENCODING 161
SWIDTH 28 0
DWIDTH 4 0
BBX 3 9 0 0
BITMAP
60
60
00
20
20
60
60
60
60
ENDCHAR

STARTCHAR char162
ENCODING 162
SWIDTH 35 0
DWIDTH 5 0
BBX 6 9 0 -1
BITMAP
10
10
70
D8
D0
D0
EC
70
20
ENDCHAR

STARTCHAR char163
ENCODING 163
SWIDTH 50 0
DWIDTH 7 0
BBX 7 9 -1 0
BITMAP
1C
36
30
30
3C
18
18
F2
EE
ENDCHAR

STARTCHAR char164
ENCODING 164
SWIDTH 0 0
DWIDTH 0 0
BBX 3 1 -1 10
BITMAP
40
ENDCHAR

STARTCHAR char165
ENCODING 165
SWIDTH 0 0
DWIDTH 0 0
BBX 4 1 -2 10
BITMAP
F0
ENDCHAR

STARTCHAR char166
ENCODING 166
SWIDTH 13 0
DWIDTH 12 0
BBX 0 0 0 0
BITMAP
ENDCHAR

STARTCHAR char167
ENCODING 167
SWIDTH 43 0
DWIDTH 6 0
BBX 5 11 0 -2
BITMAP
70
D8
E0
70
98
88
C8
70
18
D8
70
ENDCHAR

STARTCHAR char168
ENCODING 168
SWIDTH 0 0
DWIDTH 0 0
BBX 5 2 -3 7
BITMAP
D8
D8
ENDCHAR

STARTCHAR char169
ENCODING 169
SWIDTH 71 0
DWIDTH 10 0
BBX 10 9 0 0
BITMAP
1C00
2200
4D00
D280
F0C0
F0C0
F280
6D00
1E00
ENDCHAR

STARTCHAR char170
ENCODING 170
SWIDTH 0 0
DWIDTH 0 0
BBX 6 2 -3 9
BITMAP
CC
CC
ENDCHAR

STARTCHAR char171
ENCODING 171
SWIDTH 50 0
DWIDTH 7 0
BBX 6 5 0 1
BITMAP
28
48
D0
48
28
ENDCHAR

STARTCHAR char172
ENCODING 172
SWIDTH 64 0
DWIDTH 9 0
BBX 9 4 0 0
BITMAP
FF80
0180
0180
0180
ENDCHAR

STARTCHAR char173
ENCODING 173
SWIDTH 13 0
DWIDTH 12 0
BBX 0 0 0 0
BITMAP
ENDCHAR

STARTCHAR char174
ENCODING 174
SWIDTH 71 0
DWIDTH 10 0
BBX 10 8 0 0
BITMAP
1E00
7D00
D680
DDC0
DCC0
DE80
7F00
1E00
ENDCHAR

STARTCHAR char175
ENCODING 175
SWIDTH 13 0
DWIDTH 12 0
BBX 0 0 0 0
BITMAP
ENDCHAR

STARTCHAR char176
ENCODING 176
SWIDTH 28 0
DWIDTH 4 0
BBX 5 5 -1 4
BITMAP
20
50
D8
50
20
ENDCHAR

STARTCHAR char177
ENCODING 177
SWIDTH 50 0
DWIDTH 7 0
BBX 6 8 0 0
BITMAP
30
30
30
FC
30
30
30
FC
ENDCHAR

STARTCHAR char178
ENCODING 178
SWIDTH 13 0
DWIDTH 12 0
BBX 0 0 0 0
BITMAP
ENDCHAR

STARTCHAR char179
ENCODING 179
SWIDTH 13 0
DWIDTH 12 0
BBX 0 0 0 0
BITMAP
ENDCHAR

STARTCHAR char180
ENCODING 180
SWIDTH 0 0
DWIDTH 0 0
BBX 3 2 -1 7
BITMAP
60
40
ENDCHAR

STARTCHAR char181
ENCODING 181
SWIDTH 13 0
DWIDTH 12 0
BBX 0 0 0 0
BITMAP
ENDCHAR

STARTCHAR char182
ENCODING 182
SWIDTH 64 0
DWIDTH 9 0
BBX 6 11 1 -2
BITMAP
7C
EC
EC
EC
6C
6C
6C
6C
6C
6C
6C
ENDCHAR

STARTCHAR char183
ENCODING 183
SWIDTH 14 0
DWIDTH 2 0
BBX 2 2 0 3
BITMAP
C0
C0
ENDCHAR

STARTCHAR char184
ENCODING 184
SWIDTH 0 0
DWIDTH 0 0
BBX 3 3 -1 -3
BITMAP
40
60
C0
ENDCHAR

STARTCHAR char186
ENCODING 186
SWIDTH 0 0
DWIDTH 0 0
BBX 4 1 -2 10
BITMAP
F0
ENDCHAR

STARTCHAR char187
ENCODING 187
SWIDTH 50 0
DWIDTH 7 0
BBX 5 5 0 1
BITMAP
50
48
68
48
50
ENDCHAR

STARTCHAR char188
ENCODING 188
SWIDTH 13 0
DWIDTH 12 0
BBX 0 0 0 0
BITMAP
ENDCHAR

STARTCHAR char189
ENCODING 189
SWIDTH 13 0
DWIDTH 12 0
BBX 0 0 0 0
BITMAP
ENDCHAR

STARTCHAR char191
ENCODING 191
SWIDTH 43 0
DWIDTH 6 0
BBX 5 9 0 0
BITMAP
30
30
00
30
20
60
C8
D8
70
ENDCHAR

STARTCHAR char192
ENCODING 192
SWIDTH 57 0
DWIDTH 8 0
BBX 8 11 0 0
BITMAP
18
00
10
18
18
3C
2C
3E
4E
46
CF
ENDCHAR

STARTCHAR char193
ENCODING 193
SWIDTH 57 0
DWIDTH 8 0
BBX 8 11 0 0
BITMAP
18
00
10
18
18
3C
2C
3E
4E
46
CF
ENDCHAR

STARTCHAR char194
ENCODING 194
SWIDTH 57 0
DWIDTH 8 0
BBX 8 11 0 0
BITMAP
38
20
10
18
18
3C
2C
3E
4E
46
CF
ENDCHAR

STARTCHAR char195
ENCODING 195
SWIDTH 57 0
DWIDTH 8 0
BBX 8 11 0 0
BITMAP
3C
00
10
18
18
3C
2C
3E
4E
46
CF
ENDCHAR

STARTCHAR char196
ENCODING 196
SWIDTH 57 0
DWIDTH 8 0
BBX 8 11 0 0
BITMAP
6C
6C
10
10
38
38
2C
7C
4C
4E
CE
ENDCHAR

STARTCHAR char197
ENCODING 197
SWIDTH 57 0
DWIDTH 8 0
BBX 8 12 0 0
BITMAP
3C
3C
3C
10
10
18
38
2C
3C
4C
4E
CE
ENDCHAR

STARTCHAR char198
ENCODING 198
SWIDTH 13 0
DWIDTH 12 0
BBX 11 9 0 0
BITMAP
0FC0
0E20
16E0
16C0
3FC0
46C0
46E0
4620
CFE0
ENDCHAR

STARTCHAR char199
ENCODING 199
SWIDTH 64 0
DWIDTH 9 0
BBX 8 12 0 -3
BITMAP
3F
61
C1
C0
C0
C0
E0
61
3E
10
18
10
ENDCHAR

STARTCHAR char200
ENCODING 200
SWIDTH 57 0
DWIDTH 8 0
BBX 7 11 0 0
BITMAP
18
00
FE
62
66
64
78
64
66
62
FE
ENDCHAR

STARTCHAR char201
ENCODING 201
SWIDTH 57 0
DWIDTH 8 0
BBX 7 11 0 0
BITMAP
18
00
FE
62
66
64
78
64
66
62
FE
ENDCHAR

STARTCHAR char202
ENCODING 202
SWIDTH 57 0
DWIDTH 8 0
BBX 7 11 0 0
BITMAP
38
40
FE
62
66
64
78
64
66
62
FE
ENDCHAR

STARTCHAR char203
ENCODING 203
SWIDTH 57 0
DWIDTH 8 0
BBX 7 11 0 0
BITMAP
6C
6C
FE
62
6A
68
78
68
6A
62
FE
ENDCHAR

STARTCHAR char204
ENCODING 204
SWIDTH 35 0
DWIDTH 5 0
BBX 5 11 -1 0
BITMAP
60
00
78
60
60
60
60
60
60
60
F0
ENDCHAR

STARTCHAR char205
ENCODING 205
SWIDTH 35 0
DWIDTH 5 0
BBX 4 11 0 0
BITMAP
20
00
F0
60
60
60
60
60
60
60
F0
ENDCHAR

STARTCHAR char206
ENCODING 206
SWIDTH 35 0
DWIDTH 5 0
BBX 4 11 0 0
BITMAP
70
80
F0
60
60
60
60
60
60
60
F0
ENDCHAR

STARTCHAR char207
ENCODING 207
SWIDTH 35 0
DWIDTH 5 0
BBX 5 11 0 0
BITMAP
90
90
F0
60
60
60
60
60
60
60
F0
ENDCHAR

STARTCHAR char208
ENCODING 208
SWIDTH 13 0
DWIDTH 12 0
BBX 0 0 0 0
BITMAP
ENDCHAR

STARTCHAR char209
ENCODING 209
SWIDTH 71 0
DWIDTH 10 0
BBX 9 11 0 0
BITMAP
3C00
0000
E380
E300
F300
DB00
CB00
C700
C700
C700
E300
ENDCHAR

STARTCHAR char210
ENCODING 210
SWIDTH 71 0
DWIDTH 10 0
BBX 9 11 0 0
BITMAP
0C00
0000
3E00
6300
E180
C180
C180
C180
C180
6300
3E00
ENDCHAR

STARTCHAR char211
ENCODING 211
SWIDTH 71 0
DWIDTH 10 0
BBX 9 11 0 0
BITMAP
0C00
0000
3E00
6300
E180
C180
C180
C180
C180
6300
3E00
ENDCHAR

STARTCHAR char212
ENCODING 212
SWIDTH 71 0
DWIDTH 10 0
BBX 9 11 0 0
BITMAP
1C00
2000
3E00
6300
E180
C180
C180
C180
C180
6300
3E00
ENDCHAR

STARTCHAR char213
ENCODING 213
SWIDTH 71 0
DWIDTH 10 0
BBX 9 11 0 0
BITMAP
3C00
0000
3E00
6300
E180
C180
C180
C180
C180
6300
3E00
ENDCHAR

STARTCHAR char214
ENCODING 214
SWIDTH 71 0
DWIDTH 10 0
BBX 9 11 0 0
BITMAP
3600
3600
3E00
6300
6380
C380
C180
C180
6380
6300
3E00
ENDCHAR

STARTCHAR char215
ENCODING 215
SWIDTH 13 0
DWIDTH 12 0
BBX 0 0 0 0
BITMAP
ENDCHAR

STARTCHAR char216
ENCODING 216
SWIDTH 71 0
DWIDTH 10 0
BBX 9 9 0 0
BITMAP
3E80
6300
C380
C580
C980
D180
E180
6300
BE00
ENDCHAR

STARTCHAR char217
ENCODING 217
SWIDTH 64 0
DWIDTH 9 0
BBX 8 11 0 0
BITMAP
18
00
F3
63
63
63
63
63
63
63
3C
ENDCHAR

STARTCHAR char218
ENCODING 218
SWIDTH 64 0
DWIDTH 9 0
BBX 8 11 0 0
BITMAP
08
00
F3
63
63
63
63
63
63
63
3C
ENDCHAR

STARTCHAR char219
ENCODING 219
SWIDTH 64 0
DWIDTH 9 0
BBX 8 11 0 0
BITMAP
1C
20
F3
63
63
63
63
63
63
63
3C
ENDCHAR

STARTCHAR char220
ENCODING 220
SWIDTH 64 0
DWIDTH 9 0
BBX 9 11 0 0
BITMAP
3600
1600
F380
6100
6100
6100
6100
6100
6100
6200
3C00
ENDCHAR

STARTCHAR char221
ENCODING 221
SWIDTH 13 0
DWIDTH 12 0
BBX 0 0 0 0
BITMAP
ENDCHAR

STARTCHAR char222
ENCODING 222
SWIDTH 13 0
DWIDTH 12 0
BBX 0 0 0 0
BITMAP
ENDCHAR

STARTCHAR char223
ENCODING 223
SWIDTH 50 0
DWIDTH 7 0
BBX 6 9 0 0
BITMAP
78
DC
C8
D8
C8
CC
CC
CC
F8
ENDCHAR

STARTCHAR char224
ENCODING 224
SWIDTH 43 0
DWIDTH 6 0
BBX 6 9 0 0
BITMAP
60
20
00
70
D8
18
78
D8
F8
ENDCHAR

STARTCHAR char225
ENCODING 225
SWIDTH 43 0
DWIDTH 6 0
BBX 6 9 0 0
BITMAP
18
20
00
70
D8
18
78
D8
F8
ENDCHAR

STARTCHAR char226
ENCODING 226
SWIDTH 43 0
DWIDTH 6 0
BBX 6 9 0 0
BITMAP
20
50
00
70
D8
18
78
D8
F8
ENDCHAR

STARTCHAR char227
ENCODING 227
SWIDTH 43 0
DWIDTH 6 0
BBX 6 9 0 0
BITMAP
24
78
00
70
D8
18
78
D8
F8
ENDCHAR

STARTCHAR char228
ENCODING 228
SWIDTH 43 0
DWIDTH 6 0
BBX 6 9 0 0
BITMAP
D8
D8
00
70
D8
18
78
D8
FC
ENDCHAR

STARTCHAR char229
ENCODING 229
SWIDTH 43 0
DWIDTH 6 0
BBX 6 9 0 0
BITMAP
30
50
30
78
D8
18
78
D8
FC
ENDCHAR

STARTCHAR char230
ENCODING 230
SWIDTH 57 0
DWIDTH 8 0
BBX 8 6 0 0
BITMAP
7E
DA
3E
58
DB
EC
ENDCHAR

STARTCHAR char231
ENCODING 231
SWIDTH 35 0
DWIDTH 5 0
BBX 6 9 0 -3
BITMAP
70
D8
C0
C0
EC
70
20
30
60
ENDCHAR

STARTCHAR char232
ENCODING 232
SWIDTH 43 0
DWIDTH 6 0
BBX 6 9 0 0
BITMAP
60
20
00
70
C8
F8
C0
CC
70
ENDCHAR

STARTCHAR char233
ENCODING 233
SWIDTH 43 0
DWIDTH 6 0
BBX 6 9 0 0
BITMAP
10
20
00
70
C8
F8
C0
CC
70
ENDCHAR

STARTCHAR char234
ENCODING 234
SWIDTH 43 0
DWIDTH 6 0
BBX 6 9 0 0
BITMAP
20
50
00
70
C8
F8
C0
CC
70
ENDCHAR

STARTCHAR char235
ENCODING 235
SWIDTH 43 0
DWIDTH 6 0
BBX 6 9 0 0
BITMAP
D8
D8
00
70
C8
F8
C0
CC
70
ENDCHAR

STARTCHAR char236
ENCODING 236
SWIDTH 28 0
DWIDTH 4 0
BBX 4 9 0 0
BITMAP
C0
40
00
60
60
60
60
60
F0
ENDCHAR

STARTCHAR char237
ENCODING 237
SWIDTH 28 0
DWIDTH 4 0
BBX 4 9 0 0
BITMAP
20
40
00
60
60
60
60
60
F0
ENDCHAR

STARTCHAR char238
ENCODING 238
SWIDTH 28 0
DWIDTH 4 0
BBX 4 9 0 0
BITMAP
60
E0
00
60
60
60
60
60
F0
ENDCHAR

STARTCHAR char239
ENCODING 239
SWIDTH 28 0
DWIDTH 4 0
BBX 5 9 -1 0
BITMAP
D8
D8
00
30
30
30
30
30
78
ENDCHAR

STARTCHAR char241
ENCODING 241
SWIDTH 50 0
DWIDTH 7 0
BBX 6 9 0 0
BITMAP
44
F8
00
F8
CC
CC
CC
CC
FC
ENDCHAR

STARTCHAR char242
ENCODING 242
SWIDTH 43 0
DWIDTH 6 0
BBX 6 9 0 0
BITMAP
60
20
00
78
CC
CC
CC
CC
78
ENDCHAR

STARTCHAR char243
ENCODING 243
SWIDTH 43 0
DWIDTH 6 0
BBX 6 9 0 0
BITMAP
18
30
00
78
CC
CC
CC
CC
78
ENDCHAR

STARTCHAR char244
ENCODING 244
SWIDTH 43 0
DWIDTH 6 0
BBX 6 9 0 0
BITMAP
20
70
00
78
CC
CC
CC
CC
78
ENDCHAR

STARTCHAR char245
ENCODING 245
SWIDTH 43 0
DWIDTH 6 0
BBX 6 9 0 0
BITMAP
24
78
00
78
CC
CC
CC
CC
78
ENDCHAR

STARTCHAR char246
ENCODING 246
SWIDTH 43 0
DWIDTH 6 0
BBX 6 9 0 0
BITMAP
CC
CC
00
78
CC
CC
CC
CC
78
ENDCHAR

STARTCHAR char247
ENCODING 247
SWIDTH 50 0
DWIDTH 7 0
BBX 6 4 0 1
BITMAP
30
FC
00
30
ENDCHAR

STARTCHAR char248
ENCODING 248
SWIDTH 43 0
DWIDTH 6 0
BBX 5 6 0 0
BITMAP
78
C8
F8
F8
D8
F0
ENDCHAR

STARTCHAR char249
ENCODING 249
SWIDTH 50 0
DWIDTH 7 0
BBX 6 9 0 0
BITMAP
60
20
00
DC
CC
CC
CC
CC
FC
ENDCHAR

STARTCHAR char250
ENCODING 250
SWIDTH 50 0
DWIDTH 7 0
BBX 6 9 0 0
BITMAP
18
30
00
DC
CC
CC
CC
CC
FC
ENDCHAR

STARTCHAR char251
ENCODING 251
SWIDTH 50 0
DWIDTH 7 0
BBX 6 9 0 0
BITMAP
20
70
00
DC
CC
CC
CC
CC
FC
ENDCHAR

STARTCHAR char252
ENCODING 252
SWIDTH 50 0
DWIDTH 7 0
BBX 6 9 0 0
BITMAP
CC
CC
00
DC
CC
CC
CC
CC
FC
ENDCHAR

STARTCHAR char255
ENCODING 255
SWIDTH 43 0
DWIDTH 6 0
BBX 6 11 0 -2
BITMAP
D8
D8
00
EC
68
68
30
30
20
A0
C0
ENDCHAR
ENDFONT
